<svg width="556" height="168" viewBox="0 0 556 168" fill="none" xmlns="http://www.w3.org/2000/svg">
<path d="M6.813 102.896C4.67967 102.896 2.717 102.597 0.925 102V9.58399H31.517C37.2343 9.58399 42.525 10.48 47.389 12.272C52.3383 13.9787 56.3063 16.7947 59.293 20.72C62.365 24.6453 63.901 29.808 63.901 36.208C63.901 41.1573 62.9197 45.424 60.957 49.008C58.9943 52.5067 56.477 55.408 53.405 57.712C50.333 59.9307 47.0477 61.68 43.549 62.96L66.461 95.088C65.7783 96.88 64.541 98.5013 62.749 99.952C61.0423 101.403 59.165 102.341 57.117 102.768L30.749 65.776C29.8103 65.8613 28.9143 65.904 28.061 65.904H12.829V102C10.781 102.597 8.77567 102.896 6.813 102.896ZM32.541 20.592H12.829V54.896H28.061C30.7063 54.896 33.3943 54.64 36.125 54.128C38.941 53.5307 41.501 52.592 43.805 51.312C46.109 49.9467 47.9863 48.0693 49.437 45.68C50.8877 43.2907 51.613 40.2613 51.613 36.592C51.613 31.3867 49.821 27.4187 46.237 24.688C42.653 21.9573 38.0877 20.592 32.541 20.592ZM102.113 103.792C96.737 103.792 92.001 102.512 87.905 99.952C83.8943 97.392 80.737 93.808 78.433 89.2C76.2143 84.592 75.105 79.3013 75.105 73.328C75.105 66.8427 76.385 61.0827 78.945 56.048C81.505 51.0133 84.961 47.0453 89.313 44.144C93.7503 41.2427 98.785 39.792 104.417 39.792C107.404 39.792 110.348 40.3893 113.249 41.584C116.15 42.6933 118.582 44.2293 120.545 46.192V40.944C121.313 40.688 122.209 40.4747 123.233 40.304C124.257 40.1333 125.324 40.048 126.433 40.048C128.481 40.048 130.401 40.3467 132.193 40.944V79.6C132.193 84.2933 132.79 87.664 133.985 89.712C135.265 91.76 137.27 92.784 140.001 92.784C141.196 92.784 142.092 93.296 142.689 94.32C143.372 95.344 143.713 96.7093 143.713 98.416C143.713 99.7813 143.329 101.019 142.561 102.128C141.878 103.237 140.726 103.792 139.105 103.792C130.998 103.792 125.537 100.464 122.721 93.808C120.246 96.9653 117.26 99.44 113.761 101.232C110.262 102.939 106.38 103.792 102.113 103.792ZM87.009 73.328C87.009 79.3867 88.3743 84.1653 91.105 87.664C93.921 91.0773 97.761 92.784 102.625 92.784C108.001 92.784 112.31 90.9493 115.553 87.28C118.881 83.6107 120.545 78.7893 120.545 72.816V58.48C118.838 56.176 116.662 54.3413 114.017 52.976C111.372 51.5253 108.641 50.8 105.825 50.8C102.156 50.8 98.913 51.7813 96.097 53.744C93.281 55.7067 91.0623 58.3947 89.441 61.808C87.8197 65.136 87.009 68.976 87.009 73.328ZM139.101 103.792C137.992 103.792 137.096 103.28 136.413 102.256C135.73 101.232 135.389 99.9093 135.389 98.288C135.389 94.6187 136.925 92.784 139.997 92.784C142.728 92.784 145.16 91.4187 147.293 88.688C149.512 85.872 151.432 81.2213 153.053 74.736L156.893 59.76C160.477 46.448 167.304 39.792 177.373 39.792C181.213 39.792 184.456 40.944 187.101 43.248C189.746 45.4667 191.581 48.496 192.605 52.336C194.994 48.3253 198.066 45.2533 201.821 43.12C205.576 40.9013 209.757 39.792 214.365 39.792C221.021 39.792 226.141 41.968 229.725 46.32C233.394 50.672 235.229 56.7733 235.229 64.624V79.6C235.229 84.2933 235.826 87.664 237.021 89.712C238.301 91.76 240.306 92.784 243.037 92.784C244.232 92.784 245.128 93.296 245.725 94.32C246.408 95.344 246.749 96.7093 246.749 98.416C246.749 99.7813 246.365 101.019 245.597 102.128C244.914 103.237 243.762 103.792 242.141 103.792C229.768 103.792 223.581 96.1973 223.581 81.008V64.624C223.581 55.408 219.954 50.8 212.701 50.8C208.946 50.8 205.618 52.2933 202.717 55.28C199.901 58.2667 197.682 62.4053 196.061 67.696C194.525 72.9867 193.757 79.1307 193.757 86.128V102C192.904 102.256 191.965 102.469 190.941 102.64C189.917 102.811 188.936 102.896 187.997 102.896C185.949 102.896 184.029 102.597 182.237 102V61.168C182.237 57.84 181.81 55.28 180.957 53.488C180.104 51.696 178.568 50.8 176.349 50.8C174.557 50.8 173.021 51.6107 171.741 53.232C170.461 54.8533 169.352 57.456 168.413 61.04L163.677 79.472C161.458 87.92 158.386 94.1067 154.461 98.032C150.536 101.872 145.416 103.792 139.101 103.792ZM242.997 92.784C245.898 92.784 248.714 91.376 251.445 88.56C254.261 85.6587 256.608 81.776 258.485 76.912C258.4 75.7173 258.357 74.5227 258.357 73.328C258.357 66.8427 259.637 61.0827 262.197 56.048C264.757 51.0133 268.213 47.0453 272.565 44.144C277.002 41.2427 282.037 39.792 287.669 39.792C290.656 39.792 293.6 40.3893 296.501 41.584C299.402 42.6933 301.834 44.2293 303.797 46.192V40.944C304.565 40.688 305.461 40.4747 306.485 40.304C307.509 40.1333 308.576 40.048 309.685 40.048C311.733 40.048 313.653 40.3467 315.445 40.944V137.84C315.445 157.808 308.149 167.792 293.557 167.792C286.816 167.792 281.525 165.787 277.685 161.776C273.93 157.765 272.053 152.261 272.053 145.264C272.053 129.648 282.72 115.013 304.053 101.36V95.984C301.664 98.4587 298.89 100.379 295.733 101.744C292.576 103.109 289.12 103.792 285.365 103.792C280.416 103.792 276.021 102.725 272.181 100.592C268.426 98.3733 265.354 95.344 262.965 91.504C257.674 99.696 250.72 103.792 242.101 103.792C240.992 103.792 240.096 103.28 239.413 102.256C238.73 101.232 238.389 99.9093 238.389 98.288C238.389 94.6187 239.925 92.784 242.997 92.784ZM270.261 73.328C270.261 79.3867 271.626 84.1653 274.357 87.664C277.173 91.0773 281.013 92.784 285.877 92.784C291.253 92.784 295.562 90.9493 298.805 87.28C302.133 83.6107 303.797 78.7893 303.797 72.816V58.48C302.09 56.176 299.914 54.3413 297.269 52.976C294.624 51.5253 291.893 50.8 289.077 50.8C285.408 50.8 282.165 51.7813 279.349 53.744C276.533 55.7067 274.314 58.3947 272.693 61.808C271.072 65.136 270.261 68.976 270.261 73.328ZM283.573 145.008C283.573 148.677 284.426 151.536 286.133 153.584C287.84 155.717 290.186 156.784 293.173 156.784C300.426 156.784 304.053 150.469 304.053 137.84V114.928C290.4 124.571 283.573 134.597 283.573 145.008ZM316.387 108.144C315.107 109.168 313.998 109.68 313.059 109.68C311.608 109.68 310.286 108.912 309.091 107.376C307.896 105.925 307.299 104.517 307.299 103.152C307.299 102.299 307.512 101.616 307.939 101.104C308.28 100.592 308.835 100.037 309.603 99.44L333.795 81.264C332.942 78.192 332.515 74.992 332.515 71.664C332.515 65.52 333.838 60.0587 336.483 55.28C339.128 50.5013 342.712 46.7467 347.235 44.016C351.843 41.2 357.006 39.792 362.723 39.792C368.44 39.792 373.56 41.2 378.083 44.016C382.606 46.7467 386.147 50.5013 388.707 55.28C391.352 60.0587 392.675 65.52 392.675 71.664C392.675 77.808 391.352 83.312 388.707 88.176C386.147 93.04 382.606 96.88 378.083 99.696C373.646 102.427 368.526 103.792 362.723 103.792C357.603 103.792 352.952 102.725 348.771 100.592C344.675 98.3733 341.262 95.3867 338.531 91.632L316.387 108.144ZM362.595 92.784C368.056 92.784 372.408 90.864 375.651 87.024C378.979 83.184 380.643 78.064 380.643 71.664C380.643 65.4347 378.979 60.4 375.651 56.56C372.408 52.72 368.099 50.8 362.723 50.8C357.347 50.8 352.952 52.7627 349.539 56.688C346.211 60.528 344.547 65.6053 344.547 71.92C344.547 78.1493 346.168 83.184 349.411 87.024C352.739 90.864 357.134 92.784 362.595 92.784ZM431.173 103.792C424.858 103.792 419.653 102.512 415.557 99.952C411.546 97.392 408.474 93.808 406.341 89.2C404.208 84.592 402.842 79.2587 402.245 73.2C403.61 72.2613 405.402 71.5787 407.621 71.152C409.84 70.7253 411.888 70.64 413.765 70.896C414.704 77.4667 416.41 82.7147 418.885 86.64C421.445 90.48 425.626 92.4 431.429 92.4C436.976 92.4 440.986 90.6507 443.461 87.152C446.021 83.568 447.301 78.576 447.301 72.176V19.952H420.421C419.909 17.9893 419.61 16.2827 419.525 14.832C419.525 13.296 419.824 11.5467 420.421 9.58399H482.501C483.013 11.5467 483.226 13.296 483.141 14.832C483.141 16.2827 482.928 17.9893 482.501 19.952H459.333V72.176C459.333 81.9893 456.901 89.712 452.037 95.344C447.173 100.976 440.218 103.792 431.173 103.792ZM505.863 103.792C500.487 103.792 495.751 102.512 491.655 99.952C487.644 97.392 484.487 93.808 482.183 89.2C479.964 84.592 478.855 79.3013 478.855 73.328C478.855 66.8427 480.135 61.0827 482.695 56.048C485.255 51.0133 488.711 47.0453 493.063 44.144C497.5 41.2427 502.535 39.792 508.167 39.792C511.154 39.792 514.098 40.3893 516.999 41.584C519.9 42.6933 522.332 44.2293 524.295 46.192V40.944C525.063 40.688 525.959 40.4747 526.983 40.304C528.007 40.1333 529.074 40.048 530.183 40.048C532.231 40.048 534.151 40.3467 535.943 40.944V79.6C535.943 84.2933 536.54 87.664 537.735 89.712C539.015 91.76 541.02 92.784 543.751 92.784C544.69 92.784 545.714 92.5707 546.823 92.144C547.932 91.7173 549.084 91.0773 550.279 90.224C551.73 90.9067 552.924 92.1013 553.863 93.808C554.802 95.4293 555.228 97.0507 555.143 98.672C553.778 100.208 552.028 101.445 549.895 102.384C547.762 103.323 545.458 103.792 542.983 103.792H542.855C534.748 103.792 529.287 100.464 526.471 93.808C523.996 96.9653 521.01 99.44 517.511 101.232C514.012 102.939 510.13 103.792 505.863 103.792ZM490.759 73.328C490.759 79.3867 492.124 84.1653 494.855 87.664C497.671 91.0773 501.511 92.784 506.375 92.784C511.751 92.784 516.06 90.9493 519.303 87.28C522.631 83.6107 524.295 78.7893 524.295 72.816V58.48C522.588 56.176 520.412 54.3413 517.767 52.976C515.122 51.5253 512.391 50.8 509.575 50.8C505.906 50.8 502.663 51.7813 499.847 53.744C497.031 55.7067 494.812 58.3947 493.191 61.808C491.57 65.136 490.759 68.976 490.759 73.328ZM502.023 28.656C498.61 26.5227 496.434 23.4933 495.495 19.568C498.14 17.6907 500.786 15.6 503.431 13.296C506.162 10.992 508.636 8.688 510.855 6.384C513.074 4.07999 514.823 2.032 516.103 0.239998C518.066 0.751996 519.772 1.64799 521.223 2.92799C522.759 4.12266 523.911 5.57333 524.679 7.28C523.484 9.15733 521.692 11.376 519.303 13.936C516.999 16.496 514.354 19.0987 511.367 21.744C508.466 24.304 505.351 26.608 502.023 28.656Z" fill="#CE1B1B"/>
</svg>
